<svg fill="none" height="361" viewBox="0 0 230 361" width="230" xmlns="http://www.w3.org/2000/svg" xmlns:xlink="http://www.w3.org/1999/xlink"><filter id="a" color-interpolation-filters="sRGB" filterUnits="userSpaceOnUse" height="84" width="22" x="104.41" y="243.24"><feFlood flood-opacity="0" result="BackgroundImageFix"/><feBlend in="SourceGraphic" in2="BackgroundImageFix" mode="normal" result="shape"/><feColorMatrix in="SourceAlpha" result="hardAlpha" type="matrix" values="0 0 0 0 0 0 0 0 0 0 0 0 0 0 0 0 0 0 127 0"/><feOffset/><feGaussianBlur stdDeviation="2.5"/><feComposite in2="hardAlpha" k2="-1" k3="1" operator="arithmetic"/><feColorMatrix type="matrix" values="0 0 0 0 0.945098 0 0 0 0 0.352941 0 0 0 0 0.141176 0 0 0 1 0"/><feBlend in2="shape" mode="normal" result="effect1_innerShadow"/></filter><filter id="b" color-interpolation-filters="sRGB" filterUnits="userSpaceOnUse" height="50.7803" width="27.4577" x="101.519" y="279.539"><feFlood flood-opacity="0" result="BackgroundImageFix"/><feBlend in="SourceGraphic" in2="BackgroundImageFix" mode="normal" result="shape"/><feGaussianBlur result="effect1_foregroundBlur" stdDeviation="4"/></filter><filter id="c" color-interpolation-filters="sRGB" filterUnits="userSpaceOnUse" height="55.6793" width="152.678" x="77" y="302.238"><feFlood flood-opacity="0" result="BackgroundImageFix"/><feBlend in="SourceGraphic" in2="BackgroundImageFix" mode="normal" result="shape"/><feColorMatrix in="SourceAlpha" result="hardAlpha" type="matrix" values="0 0 0 0 0 0 0 0 0 0 0 0 0 0 0 0 0 0 127 0"/><feOffset dx="-3" dy="-2"/><feGaussianBlur stdDeviation="7"/><feComposite in2="hardAlpha" k2="-1" k3="1" operator="arithmetic"/><feColorMatrix type="matrix" values="0 0 0 0 0.945098 0 0 0 0 0.352941 0 0 0 0 0.141176 0 0 0 1 0"/><feBlend in2="shape" mode="normal" result="effect1_innerShadow"/></filter><filter id="d" color-interpolation-filters="sRGB" filterUnits="userSpaceOnUse" height="46" width="132" x="90" y="308"><feFlood flood-opacity="0" result="BackgroundImageFix"/><feBlend in="SourceGraphic" in2="BackgroundImageFix" mode="normal" result="shape"/><feGaussianBlur result="effect1_foregroundBlur" stdDeviation="2.5"/></filter><filter id="e" color-interpolation-filters="sRGB" filterUnits="userSpaceOnUse" height="38.5231" width="62.2788" x="167.537" y="319.18"><feFlood flood-opacity="0" result="BackgroundImageFix"/><feBlend in="SourceGraphic" in2="BackgroundImageFix" mode="normal" result="shape"/><feColorMatrix in="SourceAlpha" result="hardAlpha" type="matrix" values="0 0 0 0 0 0 0 0 0 0 0 0 0 0 0 0 0 0 127 0"/><feOffset dx="-5"/><feGaussianBlur stdDeviation="8"/><feComposite in2="hardAlpha" k2="-1" k3="1" operator="arithmetic"/><feColorMatrix type="matrix" values="0 0 0 0 0.945098 0 0 0 0 0.352941 0 0 0 0 0.141176 0 0 0 1 0"/><feBlend in2="shape" mode="normal" result="effect1_innerShadow"/></filter><filter id="f" color-interpolation-filters="sRGB" filterUnits="userSpaceOnUse" height="33.1541" width="55.5452" x="150.695" y="319.449"><feFlood flood-opacity="0" result="BackgroundImageFix"/><feBlend in="SourceGraphic" in2="BackgroundImageFix" mode="normal" result="shape"/><feGaussianBlur result="effect1_foregroundBlur" stdDeviation="2"/></filter><filter id="g" color-interpolation-filters="sRGB" filterUnits="userSpaceOnUse" height="55.6793" width="152.678" x="14" y="305"><feFlood flood-opacity="0" result="BackgroundImageFix"/><feBlend in="SourceGraphic" in2="BackgroundImageFix" mode="normal" result="shape"/><feColorMatrix in="SourceAlpha" result="hardAlpha" type="matrix" values="0 0 0 0 0 0 0 0 0 0 0 0 0 0 0 0 0 0 127 0"/><feOffset dx="-3" dy="-2"/><feGaussianBlur stdDeviation="7"/><feComposite in2="hardAlpha" k2="-1" k3="1" operator="arithmetic"/><feColorMatrix type="matrix" values="0 0 0 0 0.945098 0 0 0 0 0.352941 0 0 0 0 0.141176 0 0 0 1 0"/><feBlend in2="shape" mode="normal" result="effect1_innerShadow"/></filter><filter id="h" color-interpolation-filters="sRGB" filterUnits="userSpaceOnUse" height="46" width="132" x="27" y="310.762"><feFlood flood-opacity="0" result="BackgroundImageFix"/><feBlend in="SourceGraphic" in2="BackgroundImageFix" mode="normal" result="shape"/><feGaussianBlur result="effect1_foregroundBlur" stdDeviation="2.5"/></filter><filter id="i" color-interpolation-filters="sRGB" filterUnits="userSpaceOnUse" height="38.5231" width="62.2788" x="104.537" y="321.942"><feFlood flood-opacity="0" result="BackgroundImageFix"/><feBlend in="SourceGraphic" in2="BackgroundImageFix" mode="normal" result="shape"/><feColorMatrix in="SourceAlpha" result="hardAlpha" type="matrix" values="0 0 0 0 0 0 0 0 0 0 0 0 0 0 0 0 0 0 127 0"/><feOffset dx="-5"/><feGaussianBlur stdDeviation="8"/><feComposite in2="hardAlpha" k2="-1" k3="1" operator="arithmetic"/><feColorMatrix type="matrix" values="0 0 0 0 0.945098 0 0 0 0 0.352941 0 0 0 0 0.141176 0 0 0 1 0"/><feBlend in2="shape" mode="normal" result="effect1_innerShadow"/></filter><filter id="j" color-interpolation-filters="sRGB" filterUnits="userSpaceOnUse" height="33.1541" width="55.5452" x="87.6949" y="322.211"><feFlood flood-opacity="0" result="BackgroundImageFix"/><feBlend in="SourceGraphic" in2="BackgroundImageFix" mode="normal" result="shape"/><feGaussianBlur result="effect1_foregroundBlur" stdDeviation="2"/></filter><filter id="k" color-interpolation-filters="sRGB" filterUnits="userSpaceOnUse" height="81.7422" width="31.3665" x="42" y="257.284"><feFlood flood-opacity="0" result="BackgroundImageFix"/><feBlend in="SourceGraphic" in2="BackgroundImageFix" mode="normal" result="shape"/><feGaussianBlur result="effect1_foregroundBlur" stdDeviation="4"/></filter><linearGradient id="l"><stop offset="0" stop-color="#fff"/><stop offset=".4766" stop-color="#a25400"/><stop offset=".6401" stop-color="#a25d00"/><stop offset=".908" stop-color="#e7ad00"/><stop offset=".9509" stop-color="#eedb0e"/><stop offset="1" stop-color="#f7b81e"/></linearGradient><linearGradient id="m" gradientUnits="userSpaceOnUse" x1="186.48" x2="173.088" xlink:href="#l" y1="96.0384" y2="75.7075"/><linearGradient id="n" gradientUnits="userSpaceOnUse" x1="5.28442" x2="4.14942" xlink:href="#l" y1="58.8281" y2="82.2028"/><linearGradient id="o" gradientUnits="userSpaceOnUse" x1="115" x2="111.5" y1="279.5" y2="315.5"><stop offset="0" stop-color="#f15a24"/><stop offset=".9939" stop-color="#e29734"/></linearGradient><radialGradient id="p" cx="0" cy="0" gradientTransform="matrix(282.35816045 -4.62277419 4.6022628 281.10532835 28.1419 65.4199)" gradientUnits="userSpaceOnUse" r="1"><stop offset=".317427" stop-color="#fff"/><stop offset=".861923" stop-color="#999"/><stop offset=".96412" stop-color="#b3b3b3"/></radialGradient><linearGradient id="q" gradientUnits="userSpaceOnUse" x1="161.525" x2="142.795" xlink:href="#l" y1="97.6478" y2="116.288"/><linearGradient id="r" gradientUnits="userSpaceOnUse" x1="173.076" x2="151.387" xlink:href="#l" y1="113.039" y2="112.185"/><linearGradient id="s" gradientUnits="userSpaceOnUse" x1="165.729" x2="148.022" xlink:href="#l" y1="114.874" y2="114.177"/><linearGradient id="t" gradientUnits="userSpaceOnUse" x1="181.442" x2="160.839" xlink:href="#l" y1="103.165" y2="105.231"/><linearGradient id="u" gradientUnits="userSpaceOnUse" x1="174.8" x2="157.98" xlink:href="#l" y1="106.422" y2="108.109"/><linearGradient id="v" gradientUnits="userSpaceOnUse" x1="189.449" x2="168.846" xlink:href="#l" y1="94.4376" y2="96.5039"/><linearGradient id="w" gradientUnits="userSpaceOnUse" x1="182.807" x2="165.985" xlink:href="#l" y1="97.6941" y2="99.3811"/><linearGradient id="x" gradientUnits="userSpaceOnUse" x1="196.141" x2="176.05" xlink:href="#l" y1="84.9693" y2="88.1275"/><linearGradient id="y" gradientUnits="userSpaceOnUse" x1="189.852" x2="173.448" xlink:href="#l" y1="88.8143" y2="91.3928"/><linearGradient id="z" gradientUnits="userSpaceOnUse" x1="182.477" x2="182.749" xlink:href="#l" y1="68.7586" y2="82.8065"/><linearGradient id="A" gradientUnits="userSpaceOnUse" x1="62.9669" x2="58.8121" y1="255.472" y2="261.703"><stop offset="0" stop-color="#808080"/><stop offset="1" stop-color="#b3b3b3"/></linearGradient><radialGradient id="B" cx="0" cy="0" gradientTransform="matrix(12.49996393 .99999684 -.99999684 12.49996393 146.5 115.5)" gradientUnits="userSpaceOnUse" r="1"><stop offset="0" stop-color="#fff"/><stop offset=".401042" stop-color="#a25400"/><stop offset=".609375" stop-color="#a25d00"/><stop offset=".84375" stop-color="#e7ad00"/><stop offset=".973958" stop-color="#eedb0e"/><stop offset="1" stop-color="#f7b81e"/></radialGradient><radialGradient id="C" cx="0" cy="0" gradientTransform="matrix(69.44953332 -17.85977843 18.76884158 72.98451624 157.527 193.245)" gradientUnits="userSpaceOnUse" r="1"><stop offset="0" stop-color="#fff"/><stop offset=".651042" stop-color="#a25d00"/><stop offset=".770833" stop-color="#a25400"/><stop offset=".90625" stop-color="#e7ad00"/><stop offset=".9509" stop-color="#ffd673"/><stop offset="1" stop-color="#f7b81e"/></radialGradient><radialGradient id="D" cx="0" cy="0" gradientTransform="matrix(52.20736284 -13.42565085 14.49243544 56.35569137 159.214 191.292)" gradientUnits="userSpaceOnUse" r="1"><stop offset="0" stop-color="#fff"/><stop offset=".5149" stop-color="#fdfdfd"/><stop offset=".7003" stop-color="#f6f6f6"/><stop offset=".8325" stop-color="#ebebeb"/><stop offset=".9387" stop-color="#dadada"/><stop offset="1" stop-color="#ccc"/></radialGradient><linearGradient id="E"><stop offset="0" stop-color="#fff"/><stop offset="1"/></linearGradient><linearGradient id="F" gradientUnits="userSpaceOnUse" x1="169.821" x2="180.377" xlink:href="#E" y1="167.815" y2="176.244"/><linearGradient id="G" gradientUnits="userSpaceOnUse" x1="144.666" x2="150.727" xlink:href="#E" y1="189.478" y2="178.185"/><linearGradient id="H" gradientUnits="userSpaceOnUse" x1="116.33" x2="135.087" xlink:href="#l" y1="125.58" y2="106.932"/><linearGradient id="I" gradientUnits="userSpaceOnUse" x1="126.359" x2="141.673" xlink:href="#l" y1="123.106" y2="107.88"/><linearGradient id="J" gradientUnits="userSpaceOnUse" x1="98.9496" x2="120.358" xlink:href="#l" y1="121.877" y2="106.343"/><linearGradient id="K" gradientUnits="userSpaceOnUse" x1="109.242" x2="126.719" xlink:href="#l" y1="120.977" y2="108.296"/><linearGradient id="L" gradientUnits="userSpaceOnUse" x1="82.8696" x2="104.277" xlink:href="#l" y1="118.937" y2="103.404"/><linearGradient id="M" gradientUnits="userSpaceOnUse" x1="93.1607" x2="110.639" xlink:href="#l" y1="118.038" y2="105.356"/><linearGradient id="N" gradientUnits="userSpaceOnUse" x1="67.7636" x2="90.1559" xlink:href="#l" y1="114.66" y2="100.582"/><linearGradient id="O" gradientUnits="userSpaceOnUse" x1="78.0915" x2="96.3737" xlink:href="#l" y1="114.447" y2="102.953"/><linearGradient id="P" gradientUnits="userSpaceOnUse" x1="52.4516" x2="75.2545" xlink:href="#l" y1="110.023" y2="96.62"/><linearGradient id="Q" gradientUnits="userSpaceOnUse" x1="62.7807" x2="81.399" xlink:href="#l" y1="110.118" y2="99.1746"/><linearGradient id="R" gradientUnits="userSpaceOnUse" x1="36.5371" x2="61.1336" xlink:href="#l" y1="102.117" y2="92.3901"/><linearGradient id="S" gradientUnits="userSpaceOnUse" x1="46.7292" x2="66.8104" xlink:href="#l" y1="103.803" y2="95.8623"/><linearGradient id="T" gradientUnits="userSpaceOnUse" x1="21.6914" x2="46.2879" xlink:href="#l" y1="95.2742" y2="85.5476"/><linearGradient id="U" gradientUnits="userSpaceOnUse" x1="31.8832" x2="51.9647" xlink:href="#l" y1="96.9609" y2="89.0196"/><linearGradient id="V" gradientUnits="userSpaceOnUse" x1="8.12191" x2="33.3101" xlink:href="#l" y1="87.3795" y2="79.3059"/><linearGradient id="W" gradientUnits="userSpaceOnUse" x1="18.1794" x2="38.7438" xlink:href="#l" y1="89.7386" y2="83.1472"/><linearGradient id="X" gradientUnits="userSpaceOnUse" x1="8.45325" x2="26.4542" xlink:href="#l" y1="84.9706" y2="81.9843"/><linearGradient id="Y"><stop offset="0" stop-color="#f7b81e"/><stop offset="1" stop-color="#fff" stop-opacity="0"/></linearGradient><linearGradient id="Z" gradientUnits="userSpaceOnUse" x1="154.839" x2="154.839" xlink:href="#Y" y1="305" y2="357.917"/><linearGradient id="aa" gradientUnits="userSpaceOnUse" x1="91.8391" x2="91.8391" xlink:href="#Y" y1="307.762" y2="360.679"/><linearGradient id="ab" gradientUnits="userSpaceOnUse" x1="66.462" x2="57.6616" y1="238.151" y2="327.5"><stop offset=".09375"/><stop offset=".40625" stop-color="#f15a24"/><stop offset=".864583" stop-color="#e29734"/><stop offset="1" stop-color="#f7b81e"/></linearGradient><path d="m173.14 77.06.39-1.3c.65-2.16 2.63-3.47 4.41-2.93l4.85 1.47c1.79.54 2.71 2.73 2.06 4.88l-.39 1.3c-.65 2.16-2.63 3.47-4.42 2.93l-4.85-1.47c-1.78-.53-2.7-2.72-2.05-4.88zm6.39 3.74c.9.27 1.91-.39 2.23-1.48l.2-.66c.33-1.09-.14-2.2-1.04-2.47l-2.45-.74c-.9-.27-1.9.39-2.23 1.48l-.2.66c-.33 1.09.13 2.19 1.04 2.47z" fill="url(#m)"/><path d="m20.84 72.58c.31-.62 1.71-.55 3.12.16 1.42.71 2.32 1.78 2.01 2.4l-4.1 8.22c-.31.62-1.71.55-3.12-.16-1.42-.7-2.32-1.78-2.01-2.4z" fill="url(#n)"/><g filter="url(#a)"><path d="m113.41 243.24-9 84 22-2-2-82z" fill="url(#o)"/></g><path d="m200.86 172.07c0 61.89-44.96 112.07-100.43 112.07s-100.43-50.18-100.43-112.07c0-61.9 44.96-172.07 100.43-172.07s100.43 110.17 100.43 172.07z" fill="#fff"/><path d="m202.868 168.995c2.803 60.965-42.368 112.449-98.368 115.005-54.8792 2.504-97.55682-44.988-100.35971-105.944-2.80289-60.966 36.69511-171.51797 91.57421-174.0126 54.8795-2.50449 104.3505 103.9856 107.1535 164.9516z" fill="url(#p)" opacity=".46"/><path d="m139.85 111.56-.01 1.33c-.01 2.21 1.77 4.01 3.98 4.02l6 .03c2.21.01 4.01-1.77 4.02-3.98l.01-1.33c.01-2.21-1.77-4.01-3.98-4.02l-6-.03c-2.21-.01-4.01 1.77-4.02 3.98zm8.52-1.65c1.12.01 2.02.92 2.01 2.03v.67c-.01 1.12-.92 2.02-2.03 2.01l-3.04-.02c-1.12-.01-2.02-.92-2.01-2.03v-.67c0-1.12.92-2.02 2.03-2.01z" fill="url(#q)"/><path d="m152.52 109.84-.73-1.11c-1.21-1.85-1.13-4.05.18-4.92l3.57-2.37c1.31-.87 3.36-.08 4.58 1.76l.73 1.11c1.21 1.85 1.13 4.05-.18 4.92l-3.57 2.37c-1.32.88-3.37.09-4.58-1.76zm5.99-1.94c.66-.44.71-1.56.09-2.49l-.37-.56c-.61-.93-1.65-1.33-2.32-.89l-1.8 1.2c-.66.44-.71 1.56-.09 2.49l.37.56c.61.93 1.65 1.33 2.31.89z" fill="url(#r)"/><path d="m156.14 108.64c.49-.33.52-1.15.07-1.84-.46-.69-1.22-.99-1.72-.66l-6.54 4.34c-.49.33-.52 1.15-.07 1.85.46.69 1.22.99 1.72.66z" fill="url(#s)"/><path d="m161.68 103.64-.85-1.02c-1.4-1.69-1.64-3.99-.53-5.13l3.02-3.11c1.11-1.15 3.15-.7 4.55.98l.85 1.02c1.4 1.69 1.64 3.99.53 5.13l-3.02 3.11c-1.12 1.15-3.15.71-4.55-.98zm5.35-3.12c.56-.58.44-1.74-.27-2.6l-.43-.52c-.71-.85-1.74-1.08-2.3-.5l-1.53 1.57c-.56.58-.44 1.74.27 2.6l.43.52c.71.86 1.74 1.08 2.3.5z" fill="url(#t)"/><path d="m164.91 101.73c.42-.43.33-1.29-.2-1.92s-1.29-.8-1.71-.37l-5.53 5.7c-.42.43-.33 1.29.2 1.93.52.63 1.29.8 1.71.37z" fill="url(#u)"/><path d="m169.68 94.92-.85-1.02c-1.4-1.69-1.64-3.99-.53-5.13l3.02-3.11c1.11-1.15 3.15-.71 4.55.98l.85 1.02c1.4 1.69 1.64 3.99.53 5.13l-3.02 3.11c-1.11 1.15-3.15.71-4.55-.98zm5.36-3.12c.56-.58.44-1.74-.27-2.6l-.43-.52c-.71-.86-1.74-1.08-2.3-.5l-1.53 1.57c-.56.58-.44 1.74.27 2.6l.43.52c.71.85 1.74 1.08 2.3.5z" fill="url(#v)"/><path d="m172.91 93c.42-.43.33-1.29-.2-1.92s-1.29-.8-1.71-.37l-5.53 5.7c-.42.43-.33 1.29.2 1.93.53.63 1.29.8 1.71.37z" fill="url(#w)"/><path d="m176.86 87.03-.89-.97c-1.47-1.61-1.84-3.93-.83-5.19l2.76-3.41c1.02-1.25 3.03-.97 4.51.64l.89.97c1.47 1.61 1.84 3.93.83 5.19l-2.76 3.41c-1.02 1.25-3.04.97-4.51-.64zm5.04-3.61c.51-.64.33-1.81-.42-2.62l-.45-.49c-.75-.81-1.77-.96-2.28-.32l-1.39 1.72c-.51.63-.33 1.81.42 2.62l.45.49c.74.81 1.76.96 2.28.32z" fill="url(#x)"/><path d="m179.9 84.82c.38-.47.24-1.34-.31-1.94s-1.31-.71-1.69-.24l-5.05 6.25c-.38.47-.24 1.34.31 1.94s1.31.71 1.69.24z" fill="url(#y)"/><path d="m183.52 76.41c.35-.35 1.11-.15 1.69.44s.78 1.34.43 1.69l-4.62 4.6c-.35.35-1.11.15-1.69-.44s-.78-1.34-.43-1.69z" fill="url(#z)"/><path d="m52.51 231.49-9.74 18.82s8.36 10.62 19.5 13.28c11.15 2.65 18.39 1.34 18.39 1.34l-2.98-27.07s-14.08 6.62-25.17-6.37z" fill="#000"/><path d="m63.81 259.43c-9.14-1.96-16.59-8.27-19.85-11.44l-1.2 2.31s8.36 10.62 19.5 13.28c11.15 2.65 18.39 1.34 18.39 1.34l-.42-3.85c-3.53.1-9.24-.1-16.42-1.64z" fill="url(#A)"/><path d="m158.25 114.4c-2.22-8.65-9.55-14.25-16.35-12.5s-10.52 10.18-8.29 18.83c2.22 8.65 9.55 14.25 16.35 12.5 6.81-1.75 10.52-10.18 8.29-18.83zm-11.1 10.27c-4.12 1.06-7.26-1.34-8.47-6.04s.34-9.17 4.46-10.23 8.07 1.14 9.28 5.84c1.2 4.7-1.16 9.37-5.27 10.43z" fill="url(#B)"/><path d="m227.39 176.99c10.6 41.19-12.6 82.76-51.79 92.84-39.2 10.08-79.56-15.14-90.15-56.33s12.6-82.75 51.79-92.83c39.19-10.09 79.55 15.13 90.15 56.32z" fill="url(#C)"/><path d="m211.42 177.87c8 31.13-8.88 62.37-37.71 69.78-28.83 7.42-58.69-11.81-66.7-42.93-8-31.12 8.88-62.37 37.71-69.78 28.83-7.42 58.69 11.8 66.7 42.93z" fill="url(#D)"/><g fill="#000"><path d="m157.26 133.34c-.5 0-1.01.01-1.51.02l.18 6.05c.44-.01.89-.02 1.33-.02zm-21.26 4.71c-.17.08-.34.16-.51.24-.01 0-.01.01-.02.01-.01.01-.03.01-.04.02 0 0-.01 0-.01.01 0 0 0 0-.01 0s-.01 0-.02.01c-.01 0-.01.01-.02.01-.24.12-.49.24-.73.36l2.72 5.41c.4-.2.79-.39 1.2-.58zm-17.32 13.22c-.05.06-.1.12-.15.18 0 .01-.01.01-.01.02l-.01.01v.01l-.01.01v.01l-.01.01v.01l-.01.01c0 .01-.01.01-.01.02v.01l-.01.01s0 0-.01.01l-.01.01-.01.01s0 .01-.01.01l-.01.01s0 0-.01.01l-.01.01v.01l-.01.01c-.02.02-.03.04-.05.06 0 .01-.01.01-.01.01 0 .01-.01.01-.01.01 0 .01-.01.01-.01.01-.19.22-.37.44-.55.67l4.71 3.81c.28-.35.57-.69.86-1.03zm-10.66 19.03c-.16.48-.31.96-.46 1.44l5.8 1.75c.13-.43.27-.87.41-1.29zm3.11 21.35-6.05.28c.01.13.01.26.02.39v.02.02.01.01.01.01.01.01.01.01.01.01.01.01.01.01.02.01.02.01.02.02c.02.28.03.55.05.83l6.04-.42c-.01-.45-.04-.91-.06-1.36zm4.32 19.27-5.59 2.32c.19.47.39.93.6 1.39l5.53-2.46c-.19-.41-.37-.83-.54-1.25zm10.65 16.52-4.41 4.15.15.15.01.01s0 0 .01.01c0 0 0 .01.01.01.01.01.02.02.03.03.23.24.46.48.69.71l.01.01c.01.01.02.02.04.04l.01.01.01.01.02.02.01.01s0 0 .01.01l.01.01.01.01s0 0 .01.01l.01.01s0 0 .01.01l4.3-4.26c-.32-.32-.64-.64-.95-.97zm15.79 11.44-2.54 5.5c.01 0 .02.01.03.01 0 0 .01 0 .01.01h.01c.44.2.89.4 1.34.59l2.38-5.57c-.41-.17-.82-.35-1.23-.54zm20.11 4.3c-.28.01-.55.01-.83.01-.17 0-.34 0-.5 0l-.07 6.05h.57.03.01.02.01.02.01.02.01.06.01.02.01.02c.23 0 .47 0 .7-.01zm18.62-4.49c-.4.19-.8.38-1.2.57l2.49 5.52c.16-.07.32-.14.47-.22.01 0 .01 0 .02-.01h.01s.01 0 .01-.01h.01.01s.01 0 .01-.01h.01s.01 0 .01-.01c.27-.13.54-.25.8-.38zm15.07-11.95c-.29.35-.58.69-.87 1.02l4.56 3.99.9-1.05.01-.01s0 0 0-.01l.01-.01s0 0 .01-.01c0 0 0-.01.01-.01l.01-.01s0 0 .01-.01l.01-.01c0-.01.01-.01.01-.02zm9.22-17.15c-.14.43-.28.86-.42 1.29l5.73 1.95c.16-.48.32-.96.47-1.44zm8.38-19.87-6.04.37c.03.46.05.91.07 1.36l6.05-.22c-.01-.37-.03-.74-.05-1.11 0-.01 0-.01 0-.02s0-.01 0-.02c0 0 0 0 0-.01s0-.01 0-.02c0 0 0 0 0-.01s0-.01 0-.02c0 0 0 0 0-.01s0-.01 0-.02c0 0 0 0 0-.01s0-.01 0-.02v-.01-.01-.01-.01-.01-.01c0-.01 0-.01 0-.01v-.01-.01-.01-.01-.01-.01s0 0 0-.01c-.02-.03-.02-.06-.03-.1zm-5.09-21.24-5.56 2.41c.18.42.36.84.53 1.26l5.61-2.27c-.18-.47-.38-.94-.58-1.4zm-12.11-18.16-4.34 4.22c.32.32.63.65.93.99l4.45-4.1c-.34-.38-.69-.75-1.04-1.11zm-17.88-12.5-2.44 5.54c.41.18.82.37 1.22.56l2.59-5.47c-.45-.22-.9-.43-1.37-.63zm-20.95-4.48v6.05c.34 0 .67 0 1.01.01l.14-6.05c-.39 0-.77-.01-1.15-.01z"/><path d="m150.62 142.57-2.02 6.79-5.36-4.89-.8-9.76 4.17-1.07z"/><path d="m167.62 239.25 2.01-6.79 5.36 4.9.8 9.75-4.17 1.08z"/><path d="m204.04 183.6-6.43-2.4 4.38-5.56 9.11-.49 1.15 4.5z"/><path d="m114.21 198 6.43 2.41-4.38 5.55-9.1.5-1.16-4.5z"/><path d="m203.16 180.18-5.59.87 5.3-1.99 8.72-1.98.17.63z"/><path d="m193.74 146.31-13.56 8.63s-7.01 2.85-.53 7.78l-24.22 25.25-.14 10.34 8.75-1.68 18.89-31.73s5.76 5.9 7.29-3.24z"/></g><path d="m194.06 146.58-13.14 8.59s-6.76 2.89-.64 7.53l-23.66 24.91-.3 10 8.41-1.78 18.66-31.08s5.42 5.59 7.04-3.27z" fill="url(#F)" opacity=".2"/><path d="m127.24 172.84 8.05 10.89s2.95 5.94 5.93-1l19.14 16 7.8-1.86-2.26-7.77-23.41-9.83s3.78-6.46-3.28-6.12z" fill="#000"/><path d="m127.4 172.49 7.98 10.5s2.95 5.7 5.75-.86l18.83 15.55 7.57-1.64-2.31-7.44-22.9-9.74s3.59-6.09-3.27-5.89z" fill="url(#G)" opacity=".2"/><path d="m138.02 111.68.01-1.33c.01-2.21-1.77-4.01-3.98-4.02l-6-.03c-2.21-.01-4.01 1.77-4.02 3.98l-.01 1.33c-.01 2.21 1.77 4.01 3.98 4.02l6 .03c2.21.01 4.01-1.77 4.02-3.98zm-8.53 1.64c-1.12-.01-2.02-.92-2.01-2.03v-.68c.01-1.12.92-2.02 2.04-2.01l3.04.02c1.12.01 2.02.92 2.01 2.03v.68c-.01 1.12-.92 2.02-2.04 2.01z" fill="url(#H)"/><path d="m132.85 112.65c-.83 0-1.5-.68-1.49-1.51 0-.83.68-1.5 1.51-1.49l11 .06c.83 0 1.5.68 1.49 1.51 0 .83-.68 1.5-1.51 1.49z" fill="url(#I)"/><path d="m122.52 111.48.21-1.32c.35-2.18-1.13-4.23-3.31-4.59l-5.92-.96c-2.18-.35-4.24 1.13-4.59 3.31l-.21 1.32c-.35 2.18 1.13 4.24 3.31 4.59l5.92.96c2.19.36 4.24-1.13 4.59-3.31zm-8.67.31c-1.1-.18-1.85-1.22-1.67-2.32l.11-.67c.18-1.1 1.22-1.85 2.32-1.67l3 .49c1.1.18 1.85 1.22 1.67 2.32l-.11.67c-.18 1.1-1.22 1.85-2.32 1.67z" fill="url(#J)"/><path d="m117.27 111.64c-.82-.13-1.37-.9-1.24-1.72s.9-1.37 1.72-1.24l10.86 1.76c.82.13 1.37.9 1.24 1.72s-.9 1.37-1.72 1.24z" fill="url(#K)"/><path d="m106.44 108.54.21-1.32c.35-2.18-1.13-4.23-3.31-4.59l-5.92-.96c-2.18-.35-4.24 1.13-4.59 3.31l-.21 1.32c-.35 2.18 1.13 4.24 3.31 4.59l5.92.96c2.19.36 4.24-1.13 4.59-3.31zm-8.67.32c-1.1-.18-1.85-1.22-1.67-2.32l.11-.67c.18-1.1 1.22-1.85 2.32-1.67l3 .48c1.1.18 1.85 1.22 1.67 2.32l-.11.67c-.18 1.1-1.22 1.85-2.32 1.67z" fill="url(#L)"/><path d="m101.19 108.7c-.82-.13-1.37-.9-1.24-1.72s.9-1.37 1.72-1.24l10.86 1.76c.82.13 1.37.9 1.24 1.72s-.9 1.37-1.72 1.24z" fill="url(#M)"/><path d="m91.98 105.85.3-1.3c.5-2.15-.84-4.3-3-4.8l-5.85-1.35c-2.15-.5-4.3.85-4.8 3l-.3 1.3c-.5 2.15.84 4.3 3 4.8l5.85 1.35c2.15.5 4.3-.84 4.8-3zm-8.68-.26c-1.09-.25-1.77-1.34-1.52-2.43l.15-.66c.25-1.09 1.34-1.77 2.43-1.52l2.96.68c1.09.25 1.77 1.34 1.52 2.43l-.15.66c-.25 1.09-1.34 1.77-2.43 1.52z" fill="url(#N)"/><path d="m86.72 105.67c-.81-.19-1.31-.99-1.12-1.8s.99-1.31 1.8-1.12l10.72 2.47c.81.19 1.31.99 1.12 1.8-.18.81-.99 1.31-1.8 1.12z" fill="url(#O)"/><path d="m76.92 101.94.34-1.29c.56-2.14-.72-4.32-2.85-4.88l-5.8-1.52c-2.14-.56-4.32.72-4.88 2.85l-.34 1.29c-.56 2.14.72 4.32 2.85 4.88l5.8 1.52c2.13.57 4.32-.71 4.88-2.85zm-8.67-.52c-1.08-.28-1.73-1.39-1.44-2.47l.17-.65c.28-1.08 1.39-1.73 2.47-1.44l2.94.77c1.08.28 1.73 1.39 1.44 2.47l-.17.65c-.28 1.08-1.39 1.73-2.47 1.44z" fill="url(#P)"/><path d="m71.67 101.6c-.8-.21-1.28-1.03-1.07-1.83s1.03-1.28 1.83-1.07l10.64 2.79c.8.21 1.28 1.03 1.07 1.83s-1.03 1.28-1.83 1.07z" fill="url(#Q)"/><path d="m61.96 97.91.53-1.22c.88-2.02-.04-4.38-2.07-5.27l-5.5-2.4c-2.02-.88-4.38.04-5.27 2.06l-.53 1.22c-.88 2.02.04 4.38 2.07 5.27l5.5 2.4c2.02.89 4.38-.04 5.27-2.06zm-8.49-1.86c-1.02-.45-1.49-1.64-1.05-2.66l.27-.62c.45-1.02 1.64-1.49 2.67-1.05l2.78 1.21c1.02.45 1.49 1.64 1.04 2.66l-.27.62c-.45 1.02-1.64 1.49-2.66 1.05z" fill="url(#R)"/><path d="m56.82 96.76c-.76-.33-1.11-1.22-.77-1.97.33-.76 1.21-1.11 1.97-.77l10.08 4.4c.76.33 1.11 1.22.77 1.98-.33.76-1.21 1.11-1.97.77z" fill="url(#S)"/><path d="m47.11 91.06.53-1.22c.88-2.02-.04-4.38-2.07-5.27l-5.5-2.4c-2.02-.88-4.38.04-5.27 2.07l-.53 1.22c-.88 2.03.04 4.38 2.07 5.27l5.5 2.4c2.03.88 4.39-.04 5.27-2.07zm-8.48-1.85c-1.02-.45-1.49-1.64-1.04-2.66l.27-.62c.45-1.02 1.64-1.49 2.66-1.04l2.78 1.21c1.02.45 1.49 1.64 1.04 2.66l-.27.62c-.45 1.02-1.64 1.49-2.66 1.05z" fill="url(#T)"/><path d="m41.98 89.91c-.76-.33-1.11-1.22-.77-1.97.33-.76 1.21-1.11 1.97-.77l10.08 4.4c.76.33 1.11 1.22.77 1.98-.33.76-1.21 1.11-1.98.77z" fill="url(#U)"/><path d="m33.76 84.87.61-1.18c1.02-1.96.25-4.38-1.71-5.39l-5.33-2.76c-1.96-1.02-4.38-.25-5.39 1.71l-.61 1.18c-1.02 1.96-.25 4.38 1.71 5.39l5.33 2.76c1.96 1.01 4.38.25 5.39-1.71zm-8.34-2.42c-.99-.51-1.38-1.74-.87-2.73l.31-.6c.51-.99 1.74-1.38 2.73-.87l2.7 1.4c.99.51 1.38 1.74.87 2.73l-.31.6c-.51.99-1.74 1.38-2.73.87z" fill="url(#V)"/><path d="m28.72 83.38c-.74-.38-1.02-1.29-.64-2.02.38-.74 1.29-1.02 2.02-.64l9.77 5.06c.74.38 1.02 1.29.64 2.02-.38.74-1.29 1.02-2.02.64z" fill="url(#W)"/><path d="m17.53 77.85c-.55-.28-.68-1.11-.3-1.84.38-.74 1.13-1.1 1.68-.82l7.27 3.77c.55.28.68 1.11.3 1.85s-1.13 1.1-1.68.82z" fill="url(#X)"/><g filter="url(#b)"><path d="m113.256 287.699-3.737 34.621 11.458-1.141-1.981-33.64z" fill="#f7b81e"/></g><g filter="url(#c)"><path d="m80 337.979c2.29 12.85 15.96 13.62 23.79 13.6s54.88-2.52 68.86.64c4.83 1.09 10.11 2.71 15.64 3.95 10.49 2.34 21.9 3.29 32.88-3.43.77-.47 1.48-.95 2.13-1.43 7.82-5.81 7.2-12.72 4.7-18.22-2.422-5.328-9.5-7.5-9.5-7.5 3.38-10.78-5-15.864-10.5-18.589-9.16-4.539-27.5-3.059-41.53 1.359-9.56 3.01-14.41 6.02-50.08 7.74-11.17.54-18.7297 2.119-24.39 4.49-5.11 2.14-7.78 5.1-9.5 8-2.32 3.9-2.5 9.39-2.5 9.39z" fill="#e7ad00"/><path d="m80 337.979c2.29 12.85 15.96 13.62 23.79 13.6s54.88-2.52 68.86.64c4.83 1.09 10.11 2.71 15.64 3.95 10.49 2.34 21.9 3.29 32.88-3.43.77-.47 1.48-.95 2.13-1.43 7.82-5.81 7.2-12.72 4.7-18.22-2.422-5.328-9.5-7.5-9.5-7.5 3.38-10.78-5-15.864-10.5-18.589-9.16-4.539-27.5-3.059-41.53 1.359-9.56 3.01-14.41 6.02-50.08 7.74-11.17.54-18.7297 2.119-24.39 4.49-5.11 2.14-7.78 5.1-9.5 8-2.32 3.9-2.5 9.39-2.5 9.39z" fill="url(#Z)"/></g><g filter="url(#d)"><path d="m95 335.436c1.8665 8.742 13.009 9.266 19.391 9.252s44.731-1.714 56.126.435c3.937.742 8.241 1.844 12.748 2.688 8.55 1.592 17.851 2.238 26.8-2.334.628-.32 1.206-.646 1.736-.973 6.374-3.952 5.869-8.653 3.831-12.395-1.974-3.624-7.743-5.102-7.743-5.102 2.755-7.334-2.445-10.205-6.113-11.722-7.466-3.088-24.86-3.005-36.296 0-7.792 2.048-11.745 4.096-40.819 5.266-9.105.367-15.266 1.442-19.88 3.054-4.165 1.456-6.3414 3.47-7.7433 5.443-1.891 2.653-2.0377 6.388-2.0377 6.388z" fill="#f7b81e"/></g><g filter="url(#e)"><path d="m218.5 325c-16.5-8.839-33-6-39-2-13.5 7-5 29 5.5 32 17.788 5.082 39.447 4 44.5-12 1-3.167.2-12-11-18z" fill="#f7b81e"/></g><g filter="url(#f)"><path d="m194.074 328.198c-12.395-6.325-25.208-5.243-29.973-2.967-10.651 3.851-15.437 14.157 3.089 20.535 13.266 4.568 30.246 4.256 34.712-5.672.884-1.965.585-7.602-7.828-11.896z" fill="#f7b81e"/></g><g filter="url(#g)"><path d="m17 340.741c2.29 12.85 15.96 13.62 23.79 13.6s54.88-2.52 68.86.64c4.83 1.09 10.11 2.71 15.64 3.95 10.49 2.34 21.9 3.29 32.88-3.43.77-.47 1.48-.95 2.13-1.43 7.82-5.81 7.2-12.72 4.7-18.22-2.422-5.328-9.5-7.5-9.5-7.5 3.38-10.78-5-15.863-10.5-18.589-9.16-4.539-27.5-3.058-41.53 1.359-9.56 3.01-14.41 6.02-50.08 7.74-11.17.54-18.7297 2.12-24.39 4.49-5.11 2.14-7.78 5.1-9.5 8-2.32 3.9-2.5 9.39-2.5 9.39z" fill="#e7ad00"/><path d="m17 340.741c2.29 12.85 15.96 13.62 23.79 13.6s54.88-2.52 68.86.64c4.83 1.09 10.11 2.71 15.64 3.95 10.49 2.34 21.9 3.29 32.88-3.43.77-.47 1.48-.95 2.13-1.43 7.82-5.81 7.2-12.72 4.7-18.22-2.422-5.328-9.5-7.5-9.5-7.5 3.38-10.78-5-15.863-10.5-18.589-9.16-4.539-27.5-3.058-41.53 1.359-9.56 3.01-14.41 6.02-50.08 7.74-11.17.54-18.7297 2.12-24.39 4.49-5.11 2.14-7.78 5.1-9.5 8-2.32 3.9-2.5 9.39-2.5 9.39z" fill="url(#aa)"/></g><g filter="url(#h)"><path d="m32 338.198c1.8665 8.742 13.0087 9.266 19.3908 9.252 6.3821-.013 44.7317-1.714 56.1262.436 3.937.741 8.241 1.843 12.748 2.687 8.55 1.592 17.851 2.238 26.8-2.334.628-.319 1.206-.646 1.736-.973 6.374-3.952 5.869-8.653 3.831-12.395-1.974-3.624-7.743-5.102-7.743-5.102 2.755-7.334-2.445-10.205-6.113-11.722-7.466-3.088-24.86-3.005-36.296 0-7.7921 2.048-11.7452 4.096-40.8192 5.266-9.1044.367-15.2662 1.442-19.8798 3.054-4.1651 1.456-6.3414 3.47-7.7433 5.443-1.891 2.653-2.0377 6.388-2.0377 6.388z" fill="#f7b81e"/></g><g filter="url(#i)"><path d="m155.5 327.762c-16.5-8.839-33-6-39-2-13.5 7-5 29 5.5 32 17.788 5.083 39.447 4 44.5-12 1-3.166.2-12-11-18z" fill="#f7b81e"/></g><g filter="url(#j)"><path d="m131.074 330.96c-12.395-6.325-25.208-5.243-29.973-2.967-10.6515 3.851-15.4366 14.157 3.089 20.536 13.266 4.568 30.246 4.255 34.712-5.673.884-1.965.585-7.602-7.828-11.896z" fill="#f7b81e"/></g><path d="m58.4745 242.966-14.0324 89.834 22.6723-.951 2.639-88.283z" fill="url(#ab)"/><g filter="url(#k)"><path d="m58.8464 265.284-8.8464 65.742 13.1239-.879 2.2426-64.516z" fill="#f7b81e"/></g></svg>